REM DIRINDEX 1\2,1\3,1\4,1\5\6,1\5\7,1\8
REM DIRNAME cjc115,folder01,folder02,folder03,folder04,folder05,folder06,folder07
TITLE ""
FILE "122 【122】Unit7 (1381 adverse_1392 empathy).mp3" MP3
  TRACK 01 AUDIO
    TITLE "0:"
    INDEX 01 00:00:00
  TRACK 02 AUDIO
    TITLE "2:cjc115_4758"
    INDEX 01 00:00:07
  TRACK 03 AUDIO
    TITLE "0:"
    INDEX 01 00:01:26
  TRACK 04 AUDIO
    TITLE "3:cjc115_4759"
    INDEX 01 00:01:30
  TRACK 05 AUDIO
    TITLE "0:"
    INDEX 01 00:03:55
  TRACK 06 AUDIO
    TITLE "4:cjc115_4760"
    INDEX 01 00:03:64
  TRACK 07 AUDIO
    TITLE "0:"
    INDEX 01 00:07:25
  TRACK 08 AUDIO
    TITLE "2:cjc115_4761"
    INDEX 01 00:08:32
  TRACK 09 AUDIO
    TITLE "0:"
    INDEX 01 00:09:61
  TRACK 10 AUDIO
    TITLE "3:cjc115_4762"
    INDEX 01 00:09:71
  TRACK 11 AUDIO
    TITLE "0:"
    INDEX 01 00:11:40
  TRACK 12 AUDIO
    TITLE "4:cjc115_4763"
    INDEX 01 00:11:48
  TRACK 13 AUDIO
    TITLE "0:"
    INDEX 01 00:17:08
  TRACK 14 AUDIO
    TITLE "2:cjc115_4764"
    INDEX 01 00:18:15
  TRACK 15 AUDIO
    TITLE "0:"
    INDEX 01 00:19:28
  TRACK 16 AUDIO
    TITLE "3:cjc115_4765"
    INDEX 01 00:19:36
  TRACK 17 AUDIO
    TITLE "0:"
    INDEX 01 00:21:25
  TRACK 18 AUDIO
    TITLE "4:cjc115_4766"
    INDEX 01 00:21:33
  TRACK 19 AUDIO
    TITLE "0:"
    INDEX 01 00:26:40
  TRACK 20 AUDIO
    TITLE "2:cjc115_4767"
    INDEX 01 00:27:49
  TRACK 21 AUDIO
    TITLE "0:"
    INDEX 01 00:28:64
  TRACK 22 AUDIO
    TITLE "3:cjc115_4768"
    INDEX 01 00:28:72
  TRACK 23 AUDIO
    TITLE "0:"
    INDEX 01 00:31:04
  TRACK 24 AUDIO
    TITLE "4:cjc115_4769"
    INDEX 01 00:31:10
  TRACK 25 AUDIO
    TITLE "0:"
    INDEX 01 00:34:42
  TRACK 26 AUDIO
    TITLE "2:cjc115_4770"
    INDEX 01 00:35:51
  TRACK 27 AUDIO
    TITLE "0:"
    INDEX 01 00:36:64
  TRACK 28 AUDIO
    TITLE "3:cjc115_4771"
    INDEX 01 00:36:72
  TRACK 29 AUDIO
    TITLE "0:"
    INDEX 01 00:38:73
  TRACK 30 AUDIO
    TITLE "4:cjc115_4772"
    INDEX 01 00:39:03
  TRACK 31 AUDIO
    TITLE "0:"
    INDEX 01 00:42:47
  TRACK 32 AUDIO
    TITLE "2:cjc115_4773"
    INDEX 01 00:43:54
  TRACK 33 AUDIO
    TITLE "0:"
    INDEX 01 00:45:10
  TRACK 34 AUDIO
    TITLE "3:cjc115_4774"
    INDEX 01 00:45:18
  TRACK 35 AUDIO
    TITLE "0:"
    INDEX 01 00:46:41
  TRACK 36 AUDIO
    TITLE "4:cjc115_4775"
    INDEX 01 00:46:49
  TRACK 37 AUDIO
    TITLE "0:"
    INDEX 01 00:50:07
  TRACK 38 AUDIO
    TITLE "2:cjc115_4776"
    INDEX 01 00:51:16
  TRACK 39 AUDIO
    TITLE "0:"
    INDEX 01 00:52:59
  TRACK 40 AUDIO
    TITLE "3:cjc115_4777"
    INDEX 01 00:52:67
  TRACK 41 AUDIO
    TITLE "0:"
    INDEX 01 00:54:64
  TRACK 42 AUDIO
    TITLE "4:cjc115_4778"
    INDEX 01 00:55:03
  TRACK 43 AUDIO
    TITLE "0:"
    INDEX 01 00:59:38
  TRACK 44 AUDIO
    TITLE "2:cjc115_4779"
    INDEX 01 01:00:47
  TRACK 45 AUDIO
    TITLE "0:"
    INDEX 01 01:01:70
  TRACK 46 AUDIO
    TITLE "3:cjc115_4780"
    INDEX 01 01:02:06
  TRACK 47 AUDIO
    TITLE "0:"
    INDEX 01 01:03:35
  TRACK 48 AUDIO
    TITLE "4:cjc115_4781"
    INDEX 01 01:03:43
  TRACK 49 AUDIO
    TITLE "0:"
    INDEX 01 01:08:05
  TRACK 50 AUDIO
    TITLE "2:cjc115_4782"
    INDEX 01 01:09:14
  TRACK 51 AUDIO
    TITLE "0:"
    INDEX 01 01:10:43
  TRACK 52 AUDIO
    TITLE "3:cjc115_4783"
    INDEX 01 01:10:55
  TRACK 53 AUDIO
    TITLE "0:"
    INDEX 01 01:12:32
  TRACK 54 AUDIO
    TITLE "4:cjc115_4784"
    INDEX 01 01:12:40
  TRACK 55 AUDIO
    TITLE "0:"
    INDEX 01 01:16:26
  TRACK 56 AUDIO
    TITLE "2:cjc115_4785"
    INDEX 01 01:17:32
  TRACK 57 AUDIO
    TITLE "0:"
    INDEX 01 01:18:43
  TRACK 58 AUDIO
    TITLE "3:cjc115_4786"
    INDEX 01 01:18:53
  TRACK 59 AUDIO
    TITLE "0:"
    INDEX 01 01:20:67
  TRACK 60 AUDIO
    TITLE "4:cjc115_4787"
    INDEX 01 01:21:02
  TRACK 61 AUDIO
    TITLE "0:"
    INDEX 01 01:25:53
  TRACK 62 AUDIO
    TITLE "2:cjc115_4788"
    INDEX 01 01:26:58
  TRACK 63 AUDIO
    TITLE "0:"
    INDEX 01 01:28:02
  TRACK 64 AUDIO
    TITLE "3:cjc115_4789"
    INDEX 01 01:28:10
  TRACK 65 AUDIO
    TITLE "0:"
    INDEX 01 01:29:29
  TRACK 66 AUDIO
    TITLE "4:cjc115_4790"
    INDEX 01 01:29:39
  TRACK 67 AUDIO
    TITLE "0:"
    INDEX 01 01:32:47
  TRACK 68 AUDIO
    TITLE "2:cjc115_4791"
    INDEX 01 01:33:66
  TRACK 69 AUDIO
    TITLE "0:"
    INDEX 01 01:35:04
  TRACK 70 AUDIO
    TITLE "3:cjc115_4792"
    INDEX 01 01:35:14
  TRACK 71 AUDIO
    TITLE "0:"
    INDEX 01 01:37:34
  TRACK 72 AUDIO
    TITLE "4:cjc115_4793"
    INDEX 01 01:37:40
  TRACK 73 AUDIO
    TITLE "0:"
    INDEX 01 01:42:43
